<?xml version="1.0" encoding="UTF-8" standalone="no"?>
<svg
   xmlns:dc="http://purl.org/dc/elements/1.1/"
   xmlns:cc="http://creativecommons.org/ns#"
   xmlns:rdf="http://www.w3.org/1999/02/22-rdf-syntax-ns#"
   xmlns:svg="http://www.w3.org/2000/svg"
   xmlns="http://www.w3.org/2000/svg"
   xmlns:sodipodi="http://sodipodi.sourceforge.net/DTD/sodipodi-0.dtd"
   xmlns:inkscape="http://www.inkscape.org/namespaces/inkscape"
   width="201.77155"
   height="179.15176"
   viewBox="0 0 53.385387 47.400572"
   version="1.1"
   id="svg872"
   inkscape:version="1.0.1 (0767f8302a, 2020-10-17)"
   sodipodi:docname="beware.svg">
  <defs
     id="defs866" />
  <sodipodi:namedview
     id="base"
     pagecolor="#ffffff"
     bordercolor="#666666"
     borderopacity="1.0"
     inkscape:pageopacity="0.0"
     inkscape:pageshadow="2"
     inkscape:zoom="2.8"
     inkscape:cx="210.69344"
     inkscape:cy="79.669558"
     inkscape:document-units="px"
     inkscape:current-layer="layer1"
     inkscape:document-rotation="0"
     showgrid="false"
     units="px"
     inkscape:window-width="1920"
     inkscape:window-height="1054"
     inkscape:window-x="1440"
     inkscape:window-y="0"
     inkscape:window-maximized="1"
     inkscape:snap-global="false"
     fit-margin-top="0"
     fit-margin-left="0"
     fit-margin-right="0"
     fit-margin-bottom="0" />
  <metadata
     id="metadata869">
    <rdf:RDF>
      <cc:Work
         rdf:about="">
        <dc:format>image/svg+xml</dc:format>
        <dc:type
           rdf:resource="http://purl.org/dc/dcmitype/StillImage" />
        <dc:title />
      </cc:Work>
    </rdf:RDF>
  </metadata>
  <g
     inkscape:label="Layer 1"
     inkscape:groupmode="layer"
     id="layer1"
     transform="translate(-34.169742,-21.550655)">
    <path
       id="path830"
       style="opacity:1;fill:#ffffff;fill-opacity:0.885598;stroke-width:1.99999;stroke-linecap:round;stop-color:#000000"
       inkscape:transform-center-y="-5.0211768"
       transform="matrix(0.26458333,0,0,0.26458333,34.169742,21.550655)"
       d="M 100.99219,1.8417969 C 96.04683,1.8021099 91.044626,4.6647686 88.570312,8.9472656 a 1.8423876,1.8423876 0 0 1 -0.002,0.00195 l -0.691406,1.1933592 a 1.8423876,1.8423876 0 0 1 -0.08008,0.146484 c -4.77e-4,7.6e-4 -0.0015,0.0012 -0.002,0.002 -0.0038,0.0066 -0.0079,0.01296 -0.01172,0.01953 -7.49e-4,0.0012 -0.0012,0.0027 -0.002,0.0039 C 59.749886,58.874926 31.723591,107.43174 3.6933594,155.99414 c -2.4511851,4.25093 -2.4467286,9.96002 0.00781,14.21094 2.4544395,4.251 7.3933831,7.10371 12.3027341,7.10547 H 185.75781 c 4.90989,8.7e-4 9.85624,-2.85414 12.3125,-7.10547 2.45626,-4.25159 2.4598,-9.95805 0.008,-14.21094 v -0.002 C 169.78678,106.97651 141.49325,57.966962 113.20117,8.953125 a 1.8423876,1.8423876 0 0 1 0,-0.00195 c -2.43611,-4.2227685 -7.33055,-7.0714394 -12.20703,-7.109375 a 1.8423876,1.8423876 0 0 1 -0.002,0 z m -0.0527,6.8828125 c 2.59306,0.019633 4.99762,1.4220346 6.29297,3.6660156 28.29248,49.014468 56.58593,98.027155 84.87696,147.042965 1.35012,2.34088 0.99415,5.09155 -0.22266,7.19922 -1.21681,2.10767 -3.42251,3.79242 -6.125,3.79297 H 16.003906 c -2.702486,-5.5e-4 -4.909589,-1.68346 -6.1269529,-3.79101 -1.2173642,-2.10756 -1.5729009,-4.86007 -0.2226562,-7.20118 a 1.8423876,1.8423876 0 0 1 0,-0.002 C 37.690747,110.85848 65.731742,62.292186 93.769531,13.720703 a 1.8423876,1.8423876 0 0 1 0.01758,-0.03125 l 0.01172,-0.01953 0.01758,-0.0332 0.0078,-0.01367 c 2.92e-4,-5.38e-4 -2.93e-4,-0.0014 0,-0.002 a 1.8423876,1.8423876 0 0 1 0.02344,-0.04297 l 0.6875,-1.189453 C 95.850881,10.11087 98.308247,8.704507 100.93945,8.7246094 Z M 88.6875,54.904297 93.541016,126.64062 h 14.681644 l 4.85546,-71.736323 z m 4.972656,82.753903 v 15.53125 H 108.10352 V 137.6582 Z" />
  </g>
</svg>
